<svg width="1512" height="993" viewBox="0 0 1512 993" fill="none" xmlns="http://www.w3.org/2000/svg">
<g filter="url(#filter0_iiif_32_2)">
<path d="M-15.4585 24.7683C42.6073 157.033 364.477 330.064 772.818 438.665C1108.18 527.855 1411.53 549.565 1570.3 506.001C1631.84 593.831 1656.88 681.575 1635.37 760.211C1623.11 804.991 1596.64 843.597 1558.36 875.692C1454.44 751.831 1161.53 605.901 801.33 510.105C381.792 398.526 12.3391 392.555 -86.6085 487.876C-169.501 387.191 -206.215 284.846 -181.499 194.521C-161.275 120.612 -102.321 63.5205 -15.4585 24.7683Z" fill="url(#paint0_linear_32_2)" fill-opacity="0.05"/>
</g>
<g filter="url(#filter1_i_32_2)">
<path d="M-15.4585 -25.0089C42.6073 107.256 364.477 280.287 772.818 388.887C1108.18 478.077 1411.53 499.787 1570.3 456.224C1631.84 544.053 1656.88 631.798 1635.37 710.433C1623.11 755.214 1596.64 793.82 1558.36 825.914C1454.44 702.054 1161.53 556.124 801.33 460.327C381.792 348.749 12.3391 342.778 -86.6085 438.099C-169.501 337.413 -206.215 235.069 -181.499 144.744C-161.275 70.8345 -102.321 13.7433 -15.4585 -25.0089Z" fill="url(#paint1_linear_32_2)" fill-opacity="0.01"/>
</g>
<g filter="url(#filter2_i_32_2)">
<path d="M-2.45846 -44.9198C55.6073 87.3452 377.477 260.376 785.818 368.977C1121.18 458.167 1424.53 479.877 1583.3 436.313C1644.84 524.143 1669.88 611.887 1648.37 690.523C1636.11 735.303 1609.64 773.909 1571.36 806.004C1467.44 682.143 1174.53 536.213 814.33 440.417C394.792 328.838 25.3391 322.867 -73.6085 418.188C-156.501 317.503 -193.215 215.158 -168.499 124.833C-148.275 50.9236 -89.3206 -6.16757 -2.45846 -44.9198Z" fill="url(#paint2_linear_32_2)" fill-opacity="0.01"/>
</g>
<g filter="url(#filter3_i_32_2)">
<path d="M15.5415 -63.9256C73.6073 68.3394 395.477 241.37 803.818 349.971C1139.18 439.161 1442.53 460.871 1601.3 417.307C1662.84 505.137 1687.88 592.881 1666.37 671.517C1654.11 716.297 1627.64 754.903 1589.36 786.998C1485.44 663.138 1192.53 517.207 832.33 421.411C412.792 309.833 43.3391 303.861 -55.6085 399.183C-138.501 298.497 -175.215 196.152 -150.499 105.827C-130.275 31.9178 -71.3206 -25.1734 15.5415 -63.9256Z" fill="url(#paint3_linear_32_2)" fill-opacity="0.01"/>
</g>
<g filter="url(#filter4_i_32_2)">
<path d="M23.5415 -89.2667C81.6073 42.9983 403.477 216.029 811.818 324.63C1147.18 413.82 1450.53 435.53 1609.3 391.966C1670.84 479.796 1695.88 567.54 1674.37 646.176C1662.11 690.956 1635.64 729.562 1597.36 761.657C1493.44 637.796 1200.53 491.866 840.33 396.07C420.792 284.491 51.3391 278.52 -47.6085 373.841C-130.501 273.156 -167.215 170.811 -142.499 80.4862C-122.275 6.57666 -63.3206 -50.5145 23.5415 -89.2667Z" fill="url(#paint4_linear_32_2)" fill-opacity="0.01"/>
</g>
<g filter="url(#filter5_i_32_2)">
<path d="M11.5415 57.3497C69.6073 189.615 391.477 362.646 799.818 471.246C1135.18 560.436 1438.53 582.146 1597.3 538.582C1658.84 626.412 1683.88 714.156 1662.37 792.792C1650.11 837.572 1623.64 876.178 1585.36 908.273C1481.44 784.413 1188.53 638.482 828.33 542.686C408.792 431.108 39.3391 425.137 -59.6085 520.458C-142.501 419.772 -179.215 317.428 -154.499 227.103C-134.275 153.193 -75.3206 96.1019 11.5415 57.3497Z" fill="url(#paint5_linear_32_2)" fill-opacity="0.01"/>
</g>
<g filter="url(#filter6_i_32_2)">
<path d="M23.5415 85.4059C81.6073 217.671 403.477 390.702 811.818 499.302C1147.18 588.492 1450.53 610.202 1609.3 566.639C1670.84 654.468 1695.88 742.213 1674.37 820.848C1662.11 865.629 1635.64 904.234 1597.36 936.329C1493.44 812.469 1200.53 666.539 840.33 570.742C420.792 459.164 51.3391 453.193 -47.6085 548.514C-130.501 447.828 -167.215 345.484 -142.499 255.159C-122.275 181.249 -63.3206 124.158 23.5415 85.4059Z" fill="url(#paint6_linear_32_2)" fill-opacity="0.01"/>
</g>
<g filter="url(#filter7_i_32_2)">
<path d="M23.5415 105.317C81.6073 237.582 403.477 410.613 811.818 519.213C1147.18 608.403 1450.53 630.113 1609.3 586.549C1670.84 674.379 1695.88 762.123 1674.37 840.759C1662.11 885.54 1635.64 924.145 1597.36 956.24C1493.44 832.38 1200.53 686.449 840.33 590.653C420.792 479.075 51.3391 473.104 -47.6085 568.425C-130.501 467.739 -167.215 365.395 -142.499 275.07C-122.275 201.16 -63.3206 144.069 23.5415 105.317Z" fill="url(#paint7_linear_32_2)" fill-opacity="0.01"/>
</g>
<g filter="url(#filter8_i_32_2)">
<path d="M23.5415 127.038C81.6073 259.303 403.477 432.334 811.818 540.934C1147.18 630.124 1450.53 651.834 1609.3 608.27C1670.84 696.1 1695.88 783.844 1674.37 862.48C1662.11 907.26 1635.64 945.866 1597.36 977.961C1493.44 854.101 1200.53 708.17 840.33 612.374C420.792 500.796 51.3391 494.825 -47.6085 590.146C-130.501 489.46 -167.215 387.116 -142.499 296.791C-122.275 222.881 -63.3206 165.79 23.5415 127.038Z" fill="url(#paint8_linear_32_2)" fill-opacity="0.01"/>
</g>
<g filter="url(#filter9_iiif_32_2)">
<path d="M-35.8356 -8.39373C22.2301 123.871 344.1 296.902 752.441 405.503C1087.8 494.693 1391.15 516.403 1549.93 472.839C1611.46 560.669 1636.51 648.413 1614.99 727.049C1602.73 771.829 1576.26 810.435 1537.98 842.53C1434.06 718.669 1141.15 572.739 780.952 476.943C361.415 365.364 -8.03805 359.393 -106.986 454.714C-189.878 354.029 -226.592 251.684 -201.876 161.359C-181.653 87.4496 -122.698 30.3585 -35.8356 -8.39373Z" fill="url(#paint9_linear_32_2)"/>
</g>
<g filter="url(#filter10_iiif_32_2)">
<path d="M-27.4585 20.2431C30.6073 152.508 352.477 325.539 760.818 434.139C1096.18 523.329 1399.53 545.039 1558.3 501.476C1619.84 589.305 1644.88 677.05 1623.37 755.685C1611.11 800.466 1584.64 839.072 1546.36 871.166C1442.44 747.306 1149.53 601.376 789.33 505.579C369.792 394.001 0.339058 388.03 -98.6085 483.351C-181.501 382.665 -218.215 280.321 -193.499 189.996C-173.275 116.086 -114.321 58.9953 -27.4585 20.2431Z" fill="url(#paint10_linear_32_2)"/>
</g>
<g filter="url(#filter11_n_32_2)">
<path d="M-27.4585 20.2431C30.6073 152.508 352.477 325.539 760.818 434.139C1096.18 523.329 1399.53 545.039 1558.3 501.476C1619.84 589.305 1644.88 677.05 1623.37 755.685C1611.11 800.466 1584.64 839.072 1546.36 871.166C1442.44 747.306 1149.53 601.376 789.33 505.579C369.792 394.001 0.339058 388.03 -98.6085 483.351C-181.501 382.665 -218.215 280.321 -193.499 189.996C-173.275 116.086 -114.321 58.9953 -27.4585 20.2431Z" fill="url(#paint11_linear_32_2)"/>
</g>
<defs>
<filter id="filter0_iiif_32_2" x="-199.086" y="14.7683" width="1852.04" height="870.923" filterUnits="userSpaceOnUse" color-interpolation-filters="sRGB">
<feFlood flood-opacity="0" result="BackgroundImageFix"/>
<feBlend mode="normal" in="SourceGraphic" in2="BackgroundImageFix" result="shape"/>
<feColorMatrix in="SourceAlpha" type="matrix" values="0 0 0 0 0 0 0 0 0 0 0 0 0 0 0 0 0 0 127 0" result="hardAlpha"/>
<feOffset dy="4"/>
<feGaussianBlur stdDeviation="22"/>
<feComposite in2="hardAlpha" operator="arithmetic" k2="-1" k3="1"/>
<feColorMatrix type="matrix" values="0 0 0 0 0.722587 0 0 0 0 0.219721 0 0 0 0 0.554965 0 0 0 1 0"/>
<feBlend mode="normal" in2="shape" result="effect1_innerShadow_32_2"/>
<feColorMatrix in="SourceAlpha" type="matrix" values="0 0 0 0 0 0 0 0 0 0 0 0 0 0 0 0 0 0 127 0" result="hardAlpha"/>
<feOffset dy="6"/>
<feGaussianBlur stdDeviation="17"/>
<feComposite in2="hardAlpha" operator="arithmetic" k2="-1" k3="1"/>
<feColorMatrix type="matrix" values="0 0 0 0 0.721569 0 0 0 0 0.219608 0 0 0 0 0.556863 0 0 0 0.25 0"/>
<feBlend mode="normal" in2="effect1_innerShadow_32_2" result="effect2_innerShadow_32_2"/>
<feColorMatrix in="SourceAlpha" type="matrix" values="0 0 0 0 0 0 0 0 0 0 0 0 0 0 0 0 0 0 127 0" result="hardAlpha"/>
<feOffset dy="2"/>
<feGaussianBlur stdDeviation="5"/>
<feComposite in2="hardAlpha" operator="arithmetic" k2="-1" k3="1"/>
<feColorMatrix type="matrix" values="0 0 0 0 1 0 0 0 0 1 0 0 0 0 1 0 0 0 1 0"/>
<feBlend mode="normal" in2="effect2_innerShadow_32_2" result="effect3_innerShadow_32_2"/>
<feGaussianBlur stdDeviation="5" result="effect4_foregroundBlur_32_2"/>
</filter>
<filter id="filter1_i_32_2" x="-189.086" y="-25.0089" width="1832.04" height="854.923" filterUnits="userSpaceOnUse" color-interpolation-filters="sRGB">
<feFlood flood-opacity="0" result="BackgroundImageFix"/>
<feBlend mode="normal" in="SourceGraphic" in2="BackgroundImageFix" result="shape"/>
<feColorMatrix in="SourceAlpha" type="matrix" values="0 0 0 0 0 0 0 0 0 0 0 0 0 0 0 0 0 0 127 0" result="hardAlpha"/>
<feOffset dy="4"/>
<feGaussianBlur stdDeviation="2"/>
<feComposite in2="hardAlpha" operator="arithmetic" k2="-1" k3="1"/>
<feColorMatrix type="matrix" values="0 0 0 0 0.721569 0 0 0 0 0.219608 0 0 0 0 0.556863 0 0 0 0.25 0"/>
<feBlend mode="normal" in2="shape" result="effect1_innerShadow_32_2"/>
</filter>
<filter id="filter2_i_32_2" x="-176.086" y="-44.9198" width="1832.04" height="854.923" filterUnits="userSpaceOnUse" color-interpolation-filters="sRGB">
<feFlood flood-opacity="0" result="BackgroundImageFix"/>
<feBlend mode="normal" in="SourceGraphic" in2="BackgroundImageFix" result="shape"/>
<feColorMatrix in="SourceAlpha" type="matrix" values="0 0 0 0 0 0 0 0 0 0 0 0 0 0 0 0 0 0 127 0" result="hardAlpha"/>
<feOffset dy="4"/>
<feGaussianBlur stdDeviation="2"/>
<feComposite in2="hardAlpha" operator="arithmetic" k2="-1" k3="1"/>
<feColorMatrix type="matrix" values="0 0 0 0 0.721569 0 0 0 0 0.219608 0 0 0 0 0.556863 0 0 0 0.25 0"/>
<feBlend mode="normal" in2="shape" result="effect1_innerShadow_32_2"/>
</filter>
<filter id="filter3_i_32_2" x="-158.086" y="-63.9256" width="1832.04" height="854.923" filterUnits="userSpaceOnUse" color-interpolation-filters="sRGB">
<feFlood flood-opacity="0" result="BackgroundImageFix"/>
<feBlend mode="normal" in="SourceGraphic" in2="BackgroundImageFix" result="shape"/>
<feColorMatrix in="SourceAlpha" type="matrix" values="0 0 0 0 0 0 0 0 0 0 0 0 0 0 0 0 0 0 127 0" result="hardAlpha"/>
<feOffset dy="4"/>
<feGaussianBlur stdDeviation="2"/>
<feComposite in2="hardAlpha" operator="arithmetic" k2="-1" k3="1"/>
<feColorMatrix type="matrix" values="0 0 0 0 0.721569 0 0 0 0 0.219608 0 0 0 0 0.556863 0 0 0 0.25 0"/>
<feBlend mode="normal" in2="shape" result="effect1_innerShadow_32_2"/>
</filter>
<filter id="filter4_i_32_2" x="-150.086" y="-89.2667" width="1832.04" height="854.923" filterUnits="userSpaceOnUse" color-interpolation-filters="sRGB">
<feFlood flood-opacity="0" result="BackgroundImageFix"/>
<feBlend mode="normal" in="SourceGraphic" in2="BackgroundImageFix" result="shape"/>
<feColorMatrix in="SourceAlpha" type="matrix" values="0 0 0 0 0 0 0 0 0 0 0 0 0 0 0 0 0 0 127 0" result="hardAlpha"/>
<feOffset dy="4"/>
<feGaussianBlur stdDeviation="2"/>
<feComposite in2="hardAlpha" operator="arithmetic" k2="-1" k3="1"/>
<feColorMatrix type="matrix" values="0 0 0 0 0.721569 0 0 0 0 0.219608 0 0 0 0 0.556863 0 0 0 0.25 0"/>
<feBlend mode="normal" in2="shape" result="effect1_innerShadow_32_2"/>
</filter>
<filter id="filter5_i_32_2" x="-162.086" y="53.3497" width="1832.04" height="854.923" filterUnits="userSpaceOnUse" color-interpolation-filters="sRGB">
<feFlood flood-opacity="0" result="BackgroundImageFix"/>
<feBlend mode="normal" in="SourceGraphic" in2="BackgroundImageFix" result="shape"/>
<feColorMatrix in="SourceAlpha" type="matrix" values="0 0 0 0 0 0 0 0 0 0 0 0 0 0 0 0 0 0 127 0" result="hardAlpha"/>
<feOffset dy="-4"/>
<feGaussianBlur stdDeviation="2"/>
<feComposite in2="hardAlpha" operator="arithmetic" k2="-1" k3="1"/>
<feColorMatrix type="matrix" values="0 0 0 0 0.721569 0 0 0 0 0.219608 0 0 0 0 0.556863 0 0 0 0.25 0"/>
<feBlend mode="normal" in2="shape" result="effect1_innerShadow_32_2"/>
</filter>
<filter id="filter6_i_32_2" x="-150.086" y="81.4059" width="1832.04" height="854.923" filterUnits="userSpaceOnUse" color-interpolation-filters="sRGB">
<feFlood flood-opacity="0" result="BackgroundImageFix"/>
<feBlend mode="normal" in="SourceGraphic" in2="BackgroundImageFix" result="shape"/>
<feColorMatrix in="SourceAlpha" type="matrix" values="0 0 0 0 0 0 0 0 0 0 0 0 0 0 0 0 0 0 127 0" result="hardAlpha"/>
<feOffset dy="-4"/>
<feGaussianBlur stdDeviation="2"/>
<feComposite in2="hardAlpha" operator="arithmetic" k2="-1" k3="1"/>
<feColorMatrix type="matrix" values="0 0 0 0 0.721569 0 0 0 0 0.219608 0 0 0 0 0.556863 0 0 0 0.25 0"/>
<feBlend mode="normal" in2="shape" result="effect1_innerShadow_32_2"/>
</filter>
<filter id="filter7_i_32_2" x="-150.086" y="101.317" width="1832.04" height="854.923" filterUnits="userSpaceOnUse" color-interpolation-filters="sRGB">
<feFlood flood-opacity="0" result="BackgroundImageFix"/>
<feBlend mode="normal" in="SourceGraphic" in2="BackgroundImageFix" result="shape"/>
<feColorMatrix in="SourceAlpha" type="matrix" values="0 0 0 0 0 0 0 0 0 0 0 0 0 0 0 0 0 0 127 0" result="hardAlpha"/>
<feOffset dy="-4"/>
<feGaussianBlur stdDeviation="2"/>
<feComposite in2="hardAlpha" operator="arithmetic" k2="-1" k3="1"/>
<feColorMatrix type="matrix" values="0 0 0 0 0.721569 0 0 0 0 0.219608 0 0 0 0 0.556863 0 0 0 0.25 0"/>
<feBlend mode="normal" in2="shape" result="effect1_innerShadow_32_2"/>
</filter>
<filter id="filter8_i_32_2" x="-150.086" y="123.038" width="1832.04" height="854.923" filterUnits="userSpaceOnUse" color-interpolation-filters="sRGB">
<feFlood flood-opacity="0" result="BackgroundImageFix"/>
<feBlend mode="normal" in="SourceGraphic" in2="BackgroundImageFix" result="shape"/>
<feColorMatrix in="SourceAlpha" type="matrix" values="0 0 0 0 0 0 0 0 0 0 0 0 0 0 0 0 0 0 127 0" result="hardAlpha"/>
<feOffset dy="-4"/>
<feGaussianBlur stdDeviation="2"/>
<feComposite in2="hardAlpha" operator="arithmetic" k2="-1" k3="1"/>
<feColorMatrix type="matrix" values="0 0 0 0 0.721569 0 0 0 0 0.219608 0 0 0 0 0.556863 0 0 0 0.25 0"/>
<feBlend mode="normal" in2="shape" result="effect1_innerShadow_32_2"/>
</filter>
<filter id="filter9_iiif_32_2" x="-359.464" y="-158.394" width="2132.04" height="1150.92" filterUnits="userSpaceOnUse" color-interpolation-filters="sRGB">
<feFlood flood-opacity="0" result="BackgroundImageFix"/>
<feBlend mode="normal" in="SourceGraphic" in2="BackgroundImageFix" result="shape"/>
<feColorMatrix in="SourceAlpha" type="matrix" values="0 0 0 0 0 0 0 0 0 0 0 0 0 0 0 0 0 0 127 0" result="hardAlpha"/>
<feOffset dy="4"/>
<feGaussianBlur stdDeviation="22"/>
<feComposite in2="hardAlpha" operator="arithmetic" k2="-1" k3="1"/>
<feColorMatrix type="matrix" values="0 0 0 0 0.722587 0 0 0 0 0.219721 0 0 0 0 0.554965 0 0 0 1 0"/>
<feBlend mode="normal" in2="shape" result="effect1_innerShadow_32_2"/>
<feColorMatrix in="SourceAlpha" type="matrix" values="0 0 0 0 0 0 0 0 0 0 0 0 0 0 0 0 0 0 127 0" result="hardAlpha"/>
<feOffset dy="6"/>
<feGaussianBlur stdDeviation="17"/>
<feComposite in2="hardAlpha" operator="arithmetic" k2="-1" k3="1"/>
<feColorMatrix type="matrix" values="0 0 0 0 0.721569 0 0 0 0 0.219608 0 0 0 0 0.556863 0 0 0 0.25 0"/>
<feBlend mode="normal" in2="effect1_innerShadow_32_2" result="effect2_innerShadow_32_2"/>
<feColorMatrix in="SourceAlpha" type="matrix" values="0 0 0 0 0 0 0 0 0 0 0 0 0 0 0 0 0 0 127 0" result="hardAlpha"/>
<feOffset dy="2"/>
<feGaussianBlur stdDeviation="5"/>
<feComposite in2="hardAlpha" operator="arithmetic" k2="-1" k3="1"/>
<feColorMatrix type="matrix" values="0 0 0 0 1 0 0 0 0 1 0 0 0 0 1 0 0 0 1 0"/>
<feBlend mode="normal" in2="effect2_innerShadow_32_2" result="effect3_innerShadow_32_2"/>
<feGaussianBlur stdDeviation="75" result="effect4_foregroundBlur_32_2"/>
</filter>
<filter id="filter10_iiif_32_2" x="-204.086" y="17.2431" width="1838.04" height="859.923" filterUnits="userSpaceOnUse" color-interpolation-filters="sRGB">
<feFlood flood-opacity="0" result="BackgroundImageFix"/>
<feBlend mode="normal" in="SourceGraphic" in2="BackgroundImageFix" result="shape"/>
<feColorMatrix in="SourceAlpha" type="matrix" values="0 0 0 0 0 0 0 0 0 0 0 0 0 0 0 0 0 0 127 0" result="hardAlpha"/>
<feOffset dy="4"/>
<feGaussianBlur stdDeviation="22"/>
<feComposite in2="hardAlpha" operator="arithmetic" k2="-1" k3="1"/>
<feColorMatrix type="matrix" values="0 0 0 0 0.722587 0 0 0 0 0.219721 0 0 0 0 0.554965 0 0 0 1 0"/>
<feBlend mode="normal" in2="shape" result="effect1_innerShadow_32_2"/>
<feColorMatrix in="SourceAlpha" type="matrix" values="0 0 0 0 0 0 0 0 0 0 0 0 0 0 0 0 0 0 127 0" result="hardAlpha"/>
<feOffset dy="6"/>
<feGaussianBlur stdDeviation="17"/>
<feComposite in2="hardAlpha" operator="arithmetic" k2="-1" k3="1"/>
<feColorMatrix type="matrix" values="0 0 0 0 0.721569 0 0 0 0 0.219608 0 0 0 0 0.556863 0 0 0 0.25 0"/>
<feBlend mode="normal" in2="effect1_innerShadow_32_2" result="effect2_innerShadow_32_2"/>
<feColorMatrix in="SourceAlpha" type="matrix" values="0 0 0 0 0 0 0 0 0 0 0 0 0 0 0 0 0 0 127 0" result="hardAlpha"/>
<feOffset dy="2"/>
<feGaussianBlur stdDeviation="5"/>
<feComposite in2="hardAlpha" operator="arithmetic" k2="-1" k3="1"/>
<feColorMatrix type="matrix" values="0 0 0 0 1 0 0 0 0 1 0 0 0 0 1 0 0 0 1 0"/>
<feBlend mode="normal" in2="effect2_innerShadow_32_2" result="effect3_innerShadow_32_2"/>
<feGaussianBlur stdDeviation="1.5" result="effect4_foregroundBlur_32_2"/>
</filter>
<filter id="filter11_n_32_2" x="-201.086" y="20.2431" width="1832.04" height="850.923" filterUnits="userSpaceOnUse" color-interpolation-filters="sRGB">
<feFlood flood-opacity="0" result="BackgroundImageFix"/>
<feBlend mode="normal" in="SourceGraphic" in2="BackgroundImageFix" result="shape"/>
<feTurbulence type="fractalNoise" baseFrequency="2 2" stitchTiles="stitch" numOctaves="3" result="noise" seed="9961" />
<feComponentTransfer in="noise" result="coloredNoise1">
<feFuncR type="linear" slope="2" intercept="-0.5" />
<feFuncG type="linear" slope="2" intercept="-0.5" />
<feFuncB type="linear" slope="2" intercept="-0.5" />
<feFuncA type="discrete" tableValues="0 0 0 0 0 0 0 1 1 1 1 1 1 1 1 1 1 1 1 1 1 1 1 1 1 1 1 1 1 1 1 1 1 1 1 1 1 1 1 1 1 1 1 0 0 0 0 0 0 0 0 0 0 0 0 0 0 0 0 0 0 0 0 0 0 0 0 0 0 0 0 0 0 0 0 0 0 0 0 0 0 0 0 0 0 0 0 0 0 0 0 0 0 0 0 0 0 0 0 0 "/>
</feComponentTransfer>
<feComposite operator="in" in2="shape" in="coloredNoise1" result="noise1Clipped" />
<feComponentTransfer in="noise1Clipped" result="color1">
<feFuncA type="table" tableValues="0 0.29" />
</feComponentTransfer>
<feMerge result="effect1_noise_32_2">
<feMergeNode in="shape" />
<feMergeNode in="color1" />
</feMerge>
</filter>
<linearGradient id="paint0_linear_32_2" x1="1613.55" y1="775.037" x2="-1.37836" y2="31.7582" gradientUnits="userSpaceOnUse">
<stop stop-color="#370045" stop-opacity="0.2"/>
<stop offset="0.480769" stop-color="#FF71AA" stop-opacity="0.7"/>
<stop offset="1" stop-color="#370045" stop-opacity="0.2"/>
</linearGradient>
<linearGradient id="paint1_linear_32_2" x1="1613.55" y1="725.26" x2="-1.37836" y2="-18.019" gradientUnits="userSpaceOnUse">
<stop stop-color="#370045" stop-opacity="0.2"/>
<stop offset="0.480769" stop-color="#FF71AA" stop-opacity="0.7"/>
<stop offset="1" stop-color="#370045" stop-opacity="0.2"/>
</linearGradient>
<linearGradient id="paint2_linear_32_2" x1="1626.55" y1="705.349" x2="11.6216" y2="-37.9298" gradientUnits="userSpaceOnUse">
<stop stop-color="#370045" stop-opacity="0.2"/>
<stop offset="0.480769" stop-color="#FF71AA" stop-opacity="0.7"/>
<stop offset="1" stop-color="#370045" stop-opacity="0.2"/>
</linearGradient>
<linearGradient id="paint3_linear_32_2" x1="1644.55" y1="686.343" x2="29.6216" y2="-56.9357" gradientUnits="userSpaceOnUse">
<stop stop-color="#370045" stop-opacity="0.2"/>
<stop offset="0.480769" stop-color="#FF71AA" stop-opacity="0.7"/>
<stop offset="1" stop-color="#370045" stop-opacity="0.2"/>
</linearGradient>
<linearGradient id="paint4_linear_32_2" x1="1652.55" y1="661.002" x2="37.6216" y2="-82.2768" gradientUnits="userSpaceOnUse">
<stop stop-color="#370045" stop-opacity="0.2"/>
<stop offset="0.480769" stop-color="#FF71AA" stop-opacity="0.7"/>
<stop offset="1" stop-color="#370045" stop-opacity="0.2"/>
</linearGradient>
<linearGradient id="paint5_linear_32_2" x1="1640.55" y1="807.618" x2="25.6216" y2="64.3396" gradientUnits="userSpaceOnUse">
<stop stop-color="#370045" stop-opacity="0.2"/>
<stop offset="0.480769" stop-color="#FF71AA" stop-opacity="0.7"/>
<stop offset="1" stop-color="#370045" stop-opacity="0.2"/>
</linearGradient>
<linearGradient id="paint6_linear_32_2" x1="1652.55" y1="835.675" x2="37.6216" y2="92.3958" gradientUnits="userSpaceOnUse">
<stop stop-color="#370045" stop-opacity="0.2"/>
<stop offset="0.480769" stop-color="#FF71AA" stop-opacity="0.7"/>
<stop offset="1" stop-color="#370045" stop-opacity="0.2"/>
</linearGradient>
<linearGradient id="paint7_linear_32_2" x1="1652.55" y1="855.585" x2="37.6216" y2="112.307" gradientUnits="userSpaceOnUse">
<stop stop-color="#370045" stop-opacity="0.2"/>
<stop offset="0.480769" stop-color="#FF71AA" stop-opacity="0.7"/>
<stop offset="1" stop-color="#370045" stop-opacity="0.2"/>
</linearGradient>
<linearGradient id="paint8_linear_32_2" x1="1652.55" y1="877.306" x2="37.6216" y2="134.028" gradientUnits="userSpaceOnUse">
<stop stop-color="#370045" stop-opacity="0.2"/>
<stop offset="0.480769" stop-color="#FF71AA" stop-opacity="0.7"/>
<stop offset="1" stop-color="#370045" stop-opacity="0.2"/>
</linearGradient>
<linearGradient id="paint9_linear_32_2" x1="1593.17" y1="741.875" x2="-21.7555" y2="-1.40382" gradientUnits="userSpaceOnUse">
<stop stop-color="#370045" stop-opacity="0.2"/>
<stop offset="0.480769" stop-color="#FF71AA" stop-opacity="0.7"/>
<stop offset="1" stop-color="#370045" stop-opacity="0.2"/>
</linearGradient>
<linearGradient id="paint10_linear_32_2" x1="1601.55" y1="770.512" x2="-13.3784" y2="27.233" gradientUnits="userSpaceOnUse">
<stop stop-color="#370045" stop-opacity="0.2"/>
<stop offset="0.480769" stop-color="#FF71AA" stop-opacity="0.7"/>
<stop offset="1" stop-color="#370045" stop-opacity="0.2"/>
</linearGradient>
<linearGradient id="paint11_linear_32_2" x1="1601.55" y1="770.512" x2="-13.3784" y2="27.233" gradientUnits="userSpaceOnUse">
<stop stop-color="#370045" stop-opacity="0.2"/>
<stop offset="0.480769" stop-color="#FF71AA" stop-opacity="0.7"/>
<stop offset="1" stop-color="#370045" stop-opacity="0.2"/>
</linearGradient>
</defs>
</svg>
