<svg width="1231" height="445" viewBox="0 0 1231 445" fill="none" xmlns="http://www.w3.org/2000/svg">
<g clip-path="url(#clip0_4_715)" filter="url(#filter0_f_4_715)">
<path d="M533.498 150.867L536.114 137.041L534.016 150.945L541.083 138.546L534.481 151.166L545.312 141.412L534.851 151.512L548.383 145.353L535.089 151.945L550 149.989L535.169 152.425L550 154.864L535.089 152.908L548.383 159.497L534.851 153.341L545.312 163.441L534.481 153.687L541.083 166.304L534.016 153.908L536.114 167.812L533.498 153.983L530.886 167.812L532.984 153.908L525.914 166.304L532.519 153.687L521.688 163.441L532.149 153.341L518.614 159.497L531.911 152.908L517 154.864L531.828 152.425L517 149.989L531.911 151.945L518.614 145.353L532.149 151.512L521.688 141.412L532.519 151.166L525.914 138.546L532.984 150.945L530.886 137.041L533.498 150.867Z" fill="white" fill-opacity="0.5"/>
</g>
<g clip-path="url(#clip1_4_715)" filter="url(#filter1_f_4_715)">
<path d="M890.498 274.858L893.114 261.031L891.016 274.935L898.083 262.536L891.481 275.157L902.312 265.402L891.851 275.502L905.383 269.343L892.089 275.935L907 273.979L892.169 276.415L907 278.855L892.089 276.898L905.383 283.487L891.851 277.331L902.312 287.431L891.481 277.677L898.083 290.295L891.016 277.898L893.114 291.802L890.498 277.973L887.886 291.802L889.984 277.898L882.914 290.295L889.519 277.677L878.688 287.431L889.149 277.331L875.614 283.487L888.911 276.898L874 278.855L888.828 276.415L874 273.979L888.911 275.935L875.614 269.343L889.149 275.502L878.688 265.402L889.519 275.157L882.914 262.536L889.984 274.935L887.886 261.031L890.498 274.858Z" fill="white" fill-opacity="0.5"/>
</g>
<g clip-path="url(#clip2_4_715)" filter="url(#filter2_f_4_715)">
<path d="M804.498 76.6539L807.114 62.8276L805.016 76.7318L812.083 64.3323L805.481 76.953L816.312 67.1985L805.851 77.2988L819.383 71.1396L806.089 77.7319L821 75.7754L806.169 78.2117L821 80.6511L806.089 78.6946L819.383 85.2838L805.851 79.1276L816.312 89.2279L805.481 79.4734L812.083 92.091L805.016 79.6946L807.114 93.5989L804.498 79.7694L801.886 93.5989L803.984 79.6946L796.914 92.091L803.519 79.4734L792.688 89.2279L803.149 79.1276L789.614 85.2838L802.911 78.6946L788 80.6511L802.828 78.2117L788 75.7754L802.911 77.7319L789.614 71.1396L803.149 77.2988L792.688 67.1985L803.519 76.953L796.914 64.3323L803.984 76.7318L801.886 62.8276L804.498 76.6539Z" fill="white" fill-opacity="0.5"/>
</g>
<g clip-path="url(#clip3_4_715)" filter="url(#filter3_f_4_715)">
<path d="M218.498 72.1287L221.114 58.3024L219.016 72.2066L226.083 59.8071L219.481 72.4278L230.312 62.6733L219.851 72.7736L233.383 66.6144L220.089 73.2067L235 71.2502L220.169 73.6865L235 76.1259L220.089 74.1694L233.383 80.7586L219.851 74.6024L230.312 84.7027L219.481 74.9482L226.083 87.5658L219.016 75.1694L221.114 89.0737L218.498 75.2442L215.886 89.0737L217.984 75.1694L210.914 87.5658L217.519 74.9482L206.688 84.7027L217.149 74.6024L203.614 80.7586L216.911 74.1694L202 76.1259L216.828 73.6865L202 71.2502L216.911 73.2067L203.614 66.6144L217.149 72.7736L206.688 62.6733L217.519 72.4278L210.914 59.8071L217.984 72.2066L215.886 58.3024L218.498 72.1287Z" fill="white" fill-opacity="0.5"/>
</g>
<g clip-path="url(#clip4_4_715)" filter="url(#filter4_f_4_715)">
<path d="M455.498 222.365L458.114 208.539L456.016 222.443L463.083 210.044L456.481 222.664L467.312 212.91L456.851 223.01L470.383 216.851L457.089 223.443L472 221.487L457.169 223.923L472 226.362L457.089 224.406L470.383 230.995L456.851 224.839L467.312 234.939L456.481 225.185L463.083 237.802L456.016 225.406L458.114 239.31L455.498 225.481L452.886 239.31L454.984 225.406L447.914 237.802L454.519 225.185L443.688 234.939L454.149 224.839L440.614 230.995L453.911 224.406L439 226.362L453.828 223.923L439 221.487L453.911 223.443L440.614 216.851L454.149 223.01L443.688 212.91L454.519 222.664L447.914 210.044L454.984 222.443L452.886 208.539L455.498 222.365Z" fill="white" fill-opacity="0.5"/>
</g>
<g clip-path="url(#clip5_4_715)" filter="url(#filter5_f_4_715)">
<path d="M812.498 346.356L815.114 332.529L813.016 346.434L820.083 334.034L813.481 346.655L824.312 336.9L813.851 347.001L827.383 340.841L814.089 347.434L829 345.477L814.169 347.913L829 350.353L814.089 348.396L827.383 354.985L813.851 348.829L824.312 358.93L813.481 349.175L820.083 361.793L813.016 349.396L815.114 363.301L812.498 349.471L809.886 363.301L811.984 349.396L804.914 361.793L811.519 349.175L800.688 358.93L811.149 348.829L797.614 354.985L810.911 348.396L796 350.353L810.828 347.913L796 345.477L810.911 347.434L797.614 340.841L811.149 347.001L800.688 336.9L811.519 346.655L804.914 334.034L811.984 346.434L809.886 332.529L812.498 346.356Z" fill="white" fill-opacity="0.5"/>
</g>
<g clip-path="url(#clip6_4_715)" filter="url(#filter6_f_4_715)">
<path d="M726.498 148.152L729.114 134.326L727.016 148.23L734.083 135.83L727.481 148.451L738.312 138.697L727.851 148.797L741.383 142.638L728.089 149.23L743 147.273L728.169 149.71L743 152.149L728.089 150.193L741.383 156.782L727.851 150.626L738.312 160.726L727.481 150.972L734.083 163.589L727.016 151.193L729.114 165.097L726.498 151.268L723.886 165.097L725.984 151.193L718.914 163.589L725.519 150.972L714.688 160.726L725.149 150.626L711.614 156.782L724.911 150.193L710 152.149L724.828 149.71L710 147.273L724.911 149.23L711.614 142.638L725.149 148.797L714.688 138.697L725.519 148.451L718.914 135.83L725.984 148.23L723.886 134.326L726.498 148.152Z" fill="white" fill-opacity="0.5"/>
</g>
<g clip-path="url(#clip7_4_715)" filter="url(#filter7_f_4_715)">
<path d="M140.498 143.627L143.114 129.8L141.016 143.705L148.083 131.305L141.481 143.926L152.312 134.171L141.851 144.272L155.383 138.112L142.089 144.705L157 142.748L142.169 145.185L157 147.624L142.089 145.667L155.383 152.257L141.851 146.101L152.312 156.201L141.481 146.446L148.083 159.064L141.016 146.668L143.114 160.572L140.498 146.742L137.886 160.572L139.984 146.668L132.914 159.064L139.519 146.446L128.688 156.201L139.149 146.101L125.614 152.257L138.911 145.667L124 147.624L138.828 145.185L124 142.748L138.911 144.705L125.614 138.112L139.149 144.272L128.688 134.171L139.519 143.926L132.914 131.305L139.984 143.705L137.886 129.8L140.498 143.627Z" fill="white" fill-opacity="0.5"/>
</g>
<g clip-path="url(#clip8_4_715)" filter="url(#filter8_f_4_715)">
<path d="M638.498 150.867L641.114 137.041L639.016 150.945L646.083 138.546L639.481 151.166L650.312 141.412L639.851 151.512L653.383 145.353L640.089 151.945L655 149.989L640.169 152.425L655 154.864L640.089 152.908L653.383 159.497L639.851 153.341L650.312 163.441L639.481 153.687L646.083 166.304L639.016 153.908L641.114 167.812L638.498 153.983L635.886 167.812L637.984 153.908L630.914 166.304L637.519 153.687L626.688 163.441L637.149 153.341L623.614 159.497L636.911 152.908L622 154.864L636.828 152.425L622 149.989L636.911 151.945L623.614 145.353L637.149 151.512L626.688 141.412L637.519 151.166L630.914 138.546L637.984 150.945L635.886 137.041L638.498 150.867Z" fill="white" fill-opacity="0.5"/>
</g>
<g clip-path="url(#clip9_4_715)" filter="url(#filter9_f_4_715)">
<path d="M995.498 274.858L998.114 261.031L996.016 274.935L1003.08 262.536L996.481 275.157L1007.31 265.402L996.851 275.502L1010.38 269.343L997.089 275.935L1012 273.979L997.169 276.415L1012 278.855L997.089 276.898L1010.38 283.487L996.851 277.331L1007.31 287.431L996.481 277.677L1003.08 290.295L996.016 277.898L998.114 291.802L995.498 277.973L992.886 291.802L994.984 277.898L987.914 290.295L994.519 277.677L983.688 287.431L994.149 277.331L980.614 283.487L993.911 276.898L979 278.855L993.828 276.415L979 273.979L993.911 275.935L980.614 269.343L994.149 275.502L983.688 265.402L994.519 275.157L987.914 262.536L994.984 274.935L992.886 261.031L995.498 274.858Z" fill="white" fill-opacity="0.5"/>
</g>
<g clip-path="url(#clip10_4_715)" filter="url(#filter10_f_4_715)">
<path d="M909.498 76.6539L912.114 62.8276L910.016 76.7318L917.083 64.3323L910.481 76.953L921.312 67.1985L910.851 77.2988L924.383 71.1396L911.089 77.7319L926 75.7754L911.169 78.2117L926 80.6511L911.089 78.6946L924.383 85.2838L910.851 79.1276L921.312 89.2279L910.481 79.4734L917.083 92.091L910.016 79.6946L912.114 93.5989L909.498 79.7694L906.886 93.5989L908.984 79.6946L901.914 92.091L908.519 79.4734L897.688 89.2279L908.149 79.1276L894.614 85.2838L907.911 78.6946L893 80.6511L907.828 78.2117L893 75.7754L907.911 77.7319L894.614 71.1396L908.149 77.2988L897.688 67.1985L908.519 76.953L901.914 64.3323L908.984 76.7318L906.886 62.8276L909.498 76.6539Z" fill="white" fill-opacity="0.5"/>
</g>
<g clip-path="url(#clip11_4_715)" filter="url(#filter11_f_4_715)">
<path d="M323.498 72.1287L326.114 58.3024L324.016 72.2066L331.083 59.8071L324.481 72.4278L335.312 62.6733L324.851 72.7736L338.383 66.6144L325.089 73.2067L340 71.2502L325.169 73.6865L340 76.1259L325.089 74.1694L338.383 80.7586L324.851 74.6024L335.312 84.7027L324.481 74.9482L331.083 87.5658L324.016 75.1694L326.114 89.0737L323.498 75.2442L320.886 89.0737L322.984 75.1694L315.914 87.5658L322.519 74.9482L311.688 84.7027L322.149 74.6024L308.614 80.7586L321.911 74.1694L307 76.1259L321.828 73.6865L307 71.2502L321.911 73.2067L308.614 66.6144L322.149 72.7736L311.688 62.6733L322.519 72.4278L315.914 59.8071L322.984 72.2066L320.886 58.3024L323.498 72.1287Z" fill="white" fill-opacity="0.5"/>
</g>
<g clip-path="url(#clip12_4_715)" filter="url(#filter12_f_4_715)">
<path d="M841.498 96.5648L844.114 82.7384L842.016 96.6427L849.083 84.2432L842.481 96.8639L853.312 87.1094L842.851 97.2097L856.383 91.0504L843.089 97.6427L858 95.6862L843.169 98.1225L858 100.562L843.089 98.6054L856.383 105.195L842.851 99.0385L853.312 109.139L842.481 99.3843L849.083 112.002L842.016 99.6055L844.114 113.51L841.498 99.6803L838.886 113.51L840.984 99.6055L833.914 112.002L840.519 99.3843L829.688 109.139L840.149 99.0385L826.614 105.195L839.911 98.6054L825 100.562L839.828 98.1225L825 95.6862L839.911 97.6427L826.614 91.0504L840.149 97.2097L829.688 87.1094L840.519 96.8639L833.914 84.2432L840.984 96.6427L838.886 82.7384L841.498 96.5648Z" fill="white" fill-opacity="0.5"/>
</g>
<g clip-path="url(#clip13_4_715)" filter="url(#filter13_f_4_715)">
<path d="M1198.5 220.555L1201.11 206.729L1199.02 220.633L1206.08 208.234L1199.48 220.854L1210.31 211.1L1199.85 221.2L1213.38 215.041L1200.09 221.633L1215 219.677L1200.17 222.113L1215 224.552L1200.09 222.596L1213.38 229.185L1199.85 223.029L1210.31 233.129L1199.48 223.375L1206.08 235.992L1199.02 223.596L1201.11 237.5L1198.5 223.671L1195.89 237.5L1197.98 223.596L1190.91 235.992L1197.52 223.375L1186.69 233.129L1197.15 223.029L1183.61 229.185L1196.91 222.596L1182 224.552L1196.83 222.113L1182 219.677L1196.91 221.633L1183.61 215.041L1197.15 221.2L1186.69 211.1L1197.52 220.854L1190.91 208.234L1197.98 220.633L1195.89 206.729L1198.5 220.555Z" fill="white" fill-opacity="0.5"/>
</g>
<g clip-path="url(#clip14_4_715)" filter="url(#filter14_f_4_715)">
<path d="M1112.5 22.3516L1115.11 8.5252L1113.02 22.4295L1120.08 10.03L1113.48 22.6507L1124.31 12.8962L1113.85 22.9965L1127.38 16.8372L1114.09 23.4295L1129 21.473L1114.17 23.9093L1129 26.3487L1114.09 24.3922L1127.38 30.9814L1113.85 24.8253L1124.31 34.9256L1113.48 25.1711L1120.08 37.7887L1113.02 25.3923L1115.11 39.2965L1112.5 25.467L1109.89 39.2965L1111.98 25.3923L1104.91 37.7887L1111.52 25.1711L1100.69 34.9256L1111.15 24.8253L1097.61 30.9814L1110.91 24.3922L1096 26.3487L1110.83 23.9093L1096 21.473L1110.91 23.4295L1097.61 16.8372L1111.15 22.9965L1100.69 12.8962L1111.52 22.6507L1104.91 10.03L1111.98 22.4295L1109.89 8.5252L1112.5 22.3516Z" fill="white" fill-opacity="0.5"/>
</g>
<g clip-path="url(#clip15_4_715)" filter="url(#filter15_f_4_715)">
<path d="M526.498 17.8264L529.114 4L527.016 17.9043L534.083 5.50476L527.481 18.1255L538.312 8.37098L527.851 18.4713L541.383 12.312L528.089 18.9043L543 16.9478L528.169 19.3841L543 21.8235L528.089 19.867L541.383 26.4562L527.851 20.3001L538.312 30.4004L527.481 20.6459L534.083 33.2635L527.016 20.8671L529.114 34.7713L526.498 20.9418L523.886 34.7713L525.984 20.8671L518.914 33.2635L525.519 20.6459L514.688 30.4004L525.149 20.3001L511.614 26.4562L524.911 19.867L510 21.8235L524.828 19.3841L510 16.9478L524.911 18.9043L511.614 12.312L525.149 18.4713L514.688 8.37098L525.519 18.1255L518.914 5.50476L525.984 17.9043L523.886 4L526.498 17.8264Z" fill="white" fill-opacity="0.5"/>
</g>
<g clip-path="url(#clip16_4_715)" filter="url(#filter16_f_4_715)">
<path d="M612.498 253.137L615.114 239.31L613.016 253.214L620.083 240.815L613.481 253.436L624.312 243.681L613.851 253.782L627.383 247.622L614.089 254.215L629 252.258L614.169 254.694L629 257.134L614.089 255.177L627.383 261.766L613.851 255.61L624.312 265.711L613.481 255.956L620.083 268.574L613.016 256.177L615.114 270.082L612.498 256.252L609.886 270.082L611.984 256.177L604.914 268.574L611.519 255.956L600.688 265.711L611.149 255.61L597.614 261.766L610.911 255.177L596 257.134L610.828 254.694L596 252.258L610.911 254.215L597.614 247.622L611.149 253.782L600.688 243.681L611.519 253.436L604.914 240.815L611.984 253.214L609.886 239.31L612.498 253.137Z" fill="white" fill-opacity="0.5"/>
</g>
<g clip-path="url(#clip17_4_715)" filter="url(#filter17_f_4_715)">
<path d="M969.498 377.127L972.114 363.301L970.016 377.205L977.083 364.805L970.481 377.426L981.312 367.672L970.851 377.772L984.383 371.613L971.089 378.205L986 376.248L971.169 378.685L986 381.124L971.089 379.168L984.383 385.757L970.851 379.601L981.312 389.701L970.481 379.946L977.083 392.564L970.016 380.168L972.114 394.072L969.498 380.242L966.886 394.072L968.984 380.168L961.914 392.564L968.519 379.946L957.688 389.701L968.149 379.601L954.614 385.757L967.911 379.168L953 381.124L967.828 378.685L953 376.248L967.911 378.205L954.614 371.613L968.149 377.772L957.688 367.672L968.519 377.426L961.914 364.805L968.984 377.205L966.886 363.301L969.498 377.127Z" fill="white" fill-opacity="0.5"/>
</g>
<g clip-path="url(#clip18_4_715)" filter="url(#filter18_f_4_715)">
<path d="M883.498 178.923L886.114 165.097L884.016 179.001L891.083 166.602L884.481 179.222L895.312 169.468L884.851 179.568L898.383 173.409L885.089 180.001L900 178.045L885.169 180.481L900 182.921L885.089 180.964L898.383 187.553L884.851 181.397L895.312 191.497L884.481 181.743L891.083 194.36L884.016 181.964L886.114 195.868L883.498 182.039L880.886 195.868L882.984 181.964L875.914 194.36L882.519 181.743L871.688 191.497L882.149 181.397L868.614 187.553L881.911 180.964L867 182.921L881.828 180.481L867 178.045L881.911 180.001L868.614 173.409L882.149 179.568L871.688 169.468L882.519 179.222L875.914 166.602L882.984 179.001L880.886 165.097L883.498 178.923Z" fill="white" fill-opacity="0.5"/>
</g>
<g clip-path="url(#clip19_4_715)" filter="url(#filter19_f_4_715)">
<path d="M297.498 174.398L300.114 160.572L298.016 174.476L305.083 162.077L298.481 174.697L309.312 164.943L298.851 175.043L312.383 168.884L299.089 175.476L314 173.52L299.169 175.956L314 178.395L299.089 176.439L312.383 183.028L298.851 176.872L309.312 186.972L298.481 177.218L305.083 189.835L298.016 177.439L300.114 191.343L297.498 177.514L294.886 191.343L296.984 177.439L289.914 189.835L296.519 177.218L285.688 186.972L296.149 176.872L282.614 183.028L295.911 176.439L281 178.395L295.828 175.956L281 173.52L295.911 175.476L282.614 168.884L296.149 175.043L285.688 164.943L296.519 174.697L289.914 162.077L296.984 174.476L294.886 160.572L297.498 174.398Z" fill="white" fill-opacity="0.5"/>
</g>
<g clip-path="url(#clip20_4_715)" filter="url(#filter20_f_4_715)">
<path d="M335.498 135.481L338.114 121.655L336.016 135.559L343.083 123.16L336.481 135.781L347.312 126.026L336.851 136.126L350.383 129.967L337.089 136.559L352 134.603L337.169 137.039L352 139.479L337.089 137.522L350.383 144.111L336.851 137.955L347.312 148.055L336.481 138.301L343.083 150.919L336.016 138.522L338.114 152.426L335.498 138.597L332.886 152.426L334.984 138.522L327.914 150.919L334.519 138.301L323.688 148.055L334.149 137.955L320.614 144.111L333.911 137.522L319 139.479L333.828 137.039L319 134.603L333.911 136.559L320.614 129.967L334.149 136.126L323.688 126.026L334.519 135.781L327.914 123.16L334.984 135.559L332.886 121.655L335.498 135.481Z" fill="white" fill-opacity="0.5"/>
</g>
<g clip-path="url(#clip21_4_715)" filter="url(#filter21_f_4_715)">
<path d="M692.498 259.472L695.114 245.645L693.016 259.55L700.083 247.15L693.481 259.771L704.312 250.016L693.851 260.117L707.383 253.958L694.089 260.55L709 258.593L694.169 261.03L709 263.469L694.089 261.512L707.383 268.102L693.851 261.946L704.312 272.046L693.481 262.291L700.083 274.909L693.016 262.513L695.114 276.417L692.498 262.587L689.886 276.417L691.984 262.513L684.914 274.909L691.519 262.291L680.688 272.046L691.149 261.946L677.614 268.102L690.911 261.512L676 263.469L690.828 261.03L676 258.593L690.911 260.55L677.614 253.958L691.149 260.117L680.688 250.016L691.519 259.771L684.914 247.15L691.984 259.55L689.886 245.645L692.498 259.472Z" fill="white" fill-opacity="0.5"/>
</g>
<g clip-path="url(#clip22_4_715)" filter="url(#filter22_f_4_715)">
<path d="M606.498 61.2683L609.114 47.4419L607.016 61.3462L614.083 48.9467L607.481 61.5674L618.312 51.8129L607.851 61.9132L621.383 55.7539L608.089 62.3462L623 60.3897L608.169 62.826L623 65.2654L608.089 63.3089L621.383 69.8981L607.851 63.7419L618.312 73.8422L607.481 64.0878L614.083 76.7053L607.016 64.309L609.114 78.2132L606.498 64.3837L603.886 78.2132L605.984 64.309L598.914 76.7053L605.519 64.0878L594.688 73.8422L605.149 63.7419L591.614 69.8981L604.911 63.3089L590 65.2654L604.828 62.826L590 60.3897L604.911 62.3462L591.614 55.7539L605.149 61.9132L594.688 51.8129L605.519 61.5674L598.914 48.9467L605.984 61.3462L603.886 47.4419L606.498 61.2683Z" fill="white" fill-opacity="0.5"/>
</g>
<g clip-path="url(#clip23_4_715)" filter="url(#filter23_f_4_715)">
<path d="M20.4983 56.7431L23.1144 42.9167L21.0162 56.821L28.0826 44.4215L21.4806 57.0422L32.3124 47.2877L21.8515 57.388L35.3829 51.2287L22.0887 57.821L37 55.8645L22.1689 58.3008L37 60.7402L22.0887 58.7837L35.3829 65.3729L21.8515 59.2167L32.3124 69.317L21.4806 59.5626L28.0826 72.1802L21.0162 59.7838L23.1144 73.688L20.4983 59.8585L17.8856 73.688L19.9838 59.7838L12.914 72.1802L19.5194 59.5626L8.68756 69.317L19.1485 59.2167L5.61375 65.3729L18.9113 58.7837L4 60.7402L18.8278 58.3008L4 55.8645L18.9113 57.821L5.61375 51.2287L19.1485 57.388L8.68756 47.2877L19.5194 57.0422L12.914 44.4215L19.9838 56.821L17.8856 42.9167L20.4983 56.7431Z" fill="white" fill-opacity="0.5"/>
</g>
<g clip-path="url(#clip24_4_715)" filter="url(#filter24_f_4_715)">
<path d="M764.498 211.505L767.114 197.678L765.016 211.583L772.083 199.183L765.481 211.804L776.312 202.049L765.851 212.15L779.383 205.99L766.089 212.583L781 210.626L766.169 213.063L781 215.502L766.089 213.545L779.383 220.135L765.851 213.978L776.312 224.079L765.481 214.324L772.083 226.942L765.016 214.545L767.114 228.45L764.498 214.62L761.886 228.45L763.984 214.545L756.914 226.942L763.519 214.324L752.688 224.079L763.149 213.978L749.614 220.135L762.911 213.545L748 215.502L762.828 213.063L748 210.626L762.911 212.583L749.614 205.99L763.149 212.15L752.688 202.049L763.519 211.804L756.914 199.183L763.984 211.583L761.886 197.678L764.498 211.505Z" fill="white" fill-opacity="0.5"/>
</g>
<g clip-path="url(#clip25_4_715)" filter="url(#filter25_f_4_715)">
<path d="M1121.5 335.495L1124.11 321.669L1122.02 335.573L1129.08 323.174L1122.48 335.794L1133.31 326.04L1122.85 336.14L1136.38 329.981L1123.09 336.573L1138 334.617L1123.17 337.053L1138 339.492L1123.09 337.536L1136.38 344.125L1122.85 337.969L1133.31 348.069L1122.48 338.315L1129.08 350.932L1122.02 338.536L1124.11 352.44L1121.5 338.611L1118.89 352.44L1120.98 338.536L1113.91 350.932L1120.52 338.315L1109.69 348.069L1120.15 337.969L1106.61 344.125L1119.91 337.536L1105 339.492L1119.83 337.053L1105 334.617L1119.91 336.573L1106.61 329.981L1120.15 336.14L1109.69 326.04L1120.52 335.794L1113.91 323.174L1120.98 335.573L1118.89 321.669L1121.5 335.495Z" fill="white" fill-opacity="0.5"/>
</g>
<g clip-path="url(#clip26_4_715)" filter="url(#filter26_f_4_715)">
<path d="M1035.5 137.292L1038.11 123.465L1036.02 137.369L1043.08 124.97L1036.48 137.591L1047.31 127.836L1036.85 137.936L1050.38 131.777L1037.09 138.37L1052 136.413L1037.17 138.849L1052 141.289L1037.09 139.332L1050.38 145.921L1036.85 139.765L1047.31 149.866L1036.48 140.111L1043.08 152.729L1036.02 140.332L1038.11 154.237L1035.5 140.407L1032.89 154.237L1034.98 140.332L1027.91 152.729L1034.52 140.111L1023.69 149.866L1034.15 139.765L1020.61 145.921L1033.91 139.332L1019 141.289L1033.83 138.849L1019 136.413L1033.91 138.37L1020.61 131.777L1034.15 137.936L1023.69 127.836L1034.52 137.591L1027.91 124.97L1034.98 137.369L1032.89 123.465L1035.5 137.292Z" fill="white" fill-opacity="0.5"/>
</g>
<g clip-path="url(#clip27_4_715)" filter="url(#filter27_f_4_715)">
<path d="M449.498 132.766L452.114 118.94L450.016 132.844L457.083 120.445L450.481 133.065L461.312 123.311L450.851 133.411L464.383 127.252L451.089 133.844L466 131.888L451.169 134.324L466 136.763L451.089 134.807L464.383 141.396L450.851 135.24L461.312 145.34L450.481 135.586L457.083 148.203L450.016 135.807L452.114 149.711L449.498 135.882L446.886 149.711L448.984 135.807L441.914 148.203L448.519 135.586L437.688 145.34L448.149 135.24L434.614 141.396L447.911 134.807L433 136.763L447.828 134.324L433 131.888L447.911 133.844L434.614 127.252L448.149 133.411L437.688 123.311L448.519 133.065L441.914 120.445L448.984 132.844L446.886 118.94L449.498 132.766Z" fill="white" fill-opacity="0.5"/>
</g>
<g clip-path="url(#clip28_4_715)" filter="url(#filter28_f_4_715)">
<path d="M853.498 299.294L856.114 285.467L854.016 299.372L861.083 286.972L854.481 299.593L865.312 289.838L854.851 299.939L868.383 293.779L855.089 300.372L870 298.415L855.169 300.851L870 303.291L855.089 301.334L868.383 307.923L854.851 301.767L865.312 311.868L854.481 302.113L861.083 314.731L854.016 302.334L856.114 316.239L853.498 302.409L850.886 316.239L852.984 302.334L845.914 314.731L852.519 302.113L841.688 311.868L852.149 301.767L838.614 307.923L851.911 301.334L837 303.291L851.828 300.851L837 298.415L851.911 300.372L838.614 293.779L852.149 299.939L841.688 289.838L852.519 299.593L845.914 286.972L852.984 299.372L850.886 285.467L853.498 299.294Z" fill="white" fill-opacity="0.5"/>
</g>
<g clip-path="url(#clip29_4_715)" filter="url(#filter29_f_4_715)">
<path d="M1210.5 423.284L1213.11 409.458L1211.02 423.362L1218.08 410.962L1211.48 423.583L1222.31 413.829L1211.85 423.929L1225.38 417.77L1212.09 424.362L1227 422.405L1212.17 424.842L1227 427.281L1212.09 425.325L1225.38 431.914L1211.85 425.758L1222.31 435.858L1211.48 426.103L1218.08 438.721L1211.02 426.325L1213.11 440.229L1210.5 426.399L1207.89 440.229L1209.98 426.325L1202.91 438.721L1209.52 426.103L1198.69 435.858L1209.15 425.758L1195.61 431.914L1208.91 425.325L1194 427.281L1208.83 424.842L1194 422.405L1208.91 424.362L1195.61 417.77L1209.15 423.929L1198.69 413.829L1209.52 423.583L1202.91 410.962L1209.98 423.362L1207.89 409.458L1210.5 423.284Z" fill="white" fill-opacity="0.5"/>
</g>
<g clip-path="url(#clip30_4_715)" filter="url(#filter30_f_4_715)">
<path d="M1124.5 225.08L1127.11 211.254L1125.02 225.158L1132.08 212.759L1125.48 225.379L1136.31 215.625L1125.85 225.725L1139.38 219.566L1126.09 226.158L1141 224.202L1126.17 226.638L1141 229.078L1126.09 227.121L1139.38 233.71L1125.85 227.554L1136.31 237.654L1125.48 227.9L1132.08 240.517L1125.02 228.121L1127.11 242.025L1124.5 228.196L1121.89 242.025L1123.98 228.121L1116.91 240.517L1123.52 227.9L1112.69 237.654L1123.15 227.554L1109.61 233.71L1122.91 227.121L1108 229.078L1122.83 226.638L1108 224.202L1122.91 226.158L1109.61 219.566L1123.15 225.725L1112.69 215.625L1123.52 225.379L1116.91 212.759L1123.98 225.158L1121.89 211.254L1124.5 225.08Z" fill="white" fill-opacity="0.5"/>
</g>
<g clip-path="url(#clip31_4_715)" filter="url(#filter31_f_4_715)">
<path d="M538.498 220.555L541.114 206.729L539.016 220.633L546.083 208.234L539.481 220.854L550.312 211.1L539.851 221.2L553.383 215.041L540.089 221.633L555 219.677L540.169 222.113L555 224.552L540.089 222.596L553.383 229.185L539.851 223.029L550.312 233.129L539.481 223.375L546.083 235.992L539.016 223.596L541.114 237.5L538.498 223.671L535.886 237.5L537.984 223.596L530.914 235.992L537.519 223.375L526.688 233.129L537.149 223.029L523.614 229.185L536.911 222.596L522 224.552L536.828 222.113L522 219.677L536.911 221.633L523.614 215.041L537.149 221.2L526.688 211.1L537.519 220.854L530.914 208.234L537.984 220.633L535.886 206.729L538.498 220.555Z" fill="white" fill-opacity="0.5"/>
</g>
<defs>
<filter id="filter0_f_4_715" x="513" y="133.041" width="41" height="38.7713" filterUnits="userSpaceOnUse" color-interpolation-filters="sRGB">
<feFlood flood-opacity="0" result="BackgroundImageFix"/>
<feBlend mode="normal" in="SourceGraphic" in2="BackgroundImageFix" result="shape"/>
<feGaussianBlur stdDeviation="2" result="effect1_foregroundBlur_4_715"/>
</filter>
<filter id="filter1_f_4_715" x="870" y="257.031" width="41" height="38.7713" filterUnits="userSpaceOnUse" color-interpolation-filters="sRGB">
<feFlood flood-opacity="0" result="BackgroundImageFix"/>
<feBlend mode="normal" in="SourceGraphic" in2="BackgroundImageFix" result="shape"/>
<feGaussianBlur stdDeviation="2" result="effect1_foregroundBlur_4_715"/>
</filter>
<filter id="filter2_f_4_715" x="784" y="58.8276" width="41" height="38.7713" filterUnits="userSpaceOnUse" color-interpolation-filters="sRGB">
<feFlood flood-opacity="0" result="BackgroundImageFix"/>
<feBlend mode="normal" in="SourceGraphic" in2="BackgroundImageFix" result="shape"/>
<feGaussianBlur stdDeviation="2" result="effect1_foregroundBlur_4_715"/>
</filter>
<filter id="filter3_f_4_715" x="198" y="54.3024" width="41" height="38.7713" filterUnits="userSpaceOnUse" color-interpolation-filters="sRGB">
<feFlood flood-opacity="0" result="BackgroundImageFix"/>
<feBlend mode="normal" in="SourceGraphic" in2="BackgroundImageFix" result="shape"/>
<feGaussianBlur stdDeviation="2" result="effect1_foregroundBlur_4_715"/>
</filter>
<filter id="filter4_f_4_715" x="435" y="204.539" width="41" height="38.7713" filterUnits="userSpaceOnUse" color-interpolation-filters="sRGB">
<feFlood flood-opacity="0" result="BackgroundImageFix"/>
<feBlend mode="normal" in="SourceGraphic" in2="BackgroundImageFix" result="shape"/>
<feGaussianBlur stdDeviation="2" result="effect1_foregroundBlur_4_715"/>
</filter>
<filter id="filter5_f_4_715" x="792" y="328.529" width="41" height="38.7713" filterUnits="userSpaceOnUse" color-interpolation-filters="sRGB">
<feFlood flood-opacity="0" result="BackgroundImageFix"/>
<feBlend mode="normal" in="SourceGraphic" in2="BackgroundImageFix" result="shape"/>
<feGaussianBlur stdDeviation="2" result="effect1_foregroundBlur_4_715"/>
</filter>
<filter id="filter6_f_4_715" x="706" y="130.326" width="41" height="38.7713" filterUnits="userSpaceOnUse" color-interpolation-filters="sRGB">
<feFlood flood-opacity="0" result="BackgroundImageFix"/>
<feBlend mode="normal" in="SourceGraphic" in2="BackgroundImageFix" result="shape"/>
<feGaussianBlur stdDeviation="2" result="effect1_foregroundBlur_4_715"/>
</filter>
<filter id="filter7_f_4_715" x="120" y="125.8" width="41" height="38.7713" filterUnits="userSpaceOnUse" color-interpolation-filters="sRGB">
<feFlood flood-opacity="0" result="BackgroundImageFix"/>
<feBlend mode="normal" in="SourceGraphic" in2="BackgroundImageFix" result="shape"/>
<feGaussianBlur stdDeviation="2" result="effect1_foregroundBlur_4_715"/>
</filter>
<filter id="filter8_f_4_715" x="618" y="133.041" width="41" height="38.7713" filterUnits="userSpaceOnUse" color-interpolation-filters="sRGB">
<feFlood flood-opacity="0" result="BackgroundImageFix"/>
<feBlend mode="normal" in="SourceGraphic" in2="BackgroundImageFix" result="shape"/>
<feGaussianBlur stdDeviation="2" result="effect1_foregroundBlur_4_715"/>
</filter>
<filter id="filter9_f_4_715" x="975" y="257.031" width="41" height="38.7713" filterUnits="userSpaceOnUse" color-interpolation-filters="sRGB">
<feFlood flood-opacity="0" result="BackgroundImageFix"/>
<feBlend mode="normal" in="SourceGraphic" in2="BackgroundImageFix" result="shape"/>
<feGaussianBlur stdDeviation="2" result="effect1_foregroundBlur_4_715"/>
</filter>
<filter id="filter10_f_4_715" x="889" y="58.8276" width="41" height="38.7713" filterUnits="userSpaceOnUse" color-interpolation-filters="sRGB">
<feFlood flood-opacity="0" result="BackgroundImageFix"/>
<feBlend mode="normal" in="SourceGraphic" in2="BackgroundImageFix" result="shape"/>
<feGaussianBlur stdDeviation="2" result="effect1_foregroundBlur_4_715"/>
</filter>
<filter id="filter11_f_4_715" x="303" y="54.3024" width="41" height="38.7713" filterUnits="userSpaceOnUse" color-interpolation-filters="sRGB">
<feFlood flood-opacity="0" result="BackgroundImageFix"/>
<feBlend mode="normal" in="SourceGraphic" in2="BackgroundImageFix" result="shape"/>
<feGaussianBlur stdDeviation="2" result="effect1_foregroundBlur_4_715"/>
</filter>
<filter id="filter12_f_4_715" x="821" y="78.7384" width="41" height="38.7713" filterUnits="userSpaceOnUse" color-interpolation-filters="sRGB">
<feFlood flood-opacity="0" result="BackgroundImageFix"/>
<feBlend mode="normal" in="SourceGraphic" in2="BackgroundImageFix" result="shape"/>
<feGaussianBlur stdDeviation="2" result="effect1_foregroundBlur_4_715"/>
</filter>
<filter id="filter13_f_4_715" x="1178" y="202.729" width="41" height="38.7713" filterUnits="userSpaceOnUse" color-interpolation-filters="sRGB">
<feFlood flood-opacity="0" result="BackgroundImageFix"/>
<feBlend mode="normal" in="SourceGraphic" in2="BackgroundImageFix" result="shape"/>
<feGaussianBlur stdDeviation="2" result="effect1_foregroundBlur_4_715"/>
</filter>
<filter id="filter14_f_4_715" x="1092" y="4.5252" width="41" height="38.7713" filterUnits="userSpaceOnUse" color-interpolation-filters="sRGB">
<feFlood flood-opacity="0" result="BackgroundImageFix"/>
<feBlend mode="normal" in="SourceGraphic" in2="BackgroundImageFix" result="shape"/>
<feGaussianBlur stdDeviation="2" result="effect1_foregroundBlur_4_715"/>
</filter>
<filter id="filter15_f_4_715" x="506" y="0" width="41" height="38.7713" filterUnits="userSpaceOnUse" color-interpolation-filters="sRGB">
<feFlood flood-opacity="0" result="BackgroundImageFix"/>
<feBlend mode="normal" in="SourceGraphic" in2="BackgroundImageFix" result="shape"/>
<feGaussianBlur stdDeviation="2" result="effect1_foregroundBlur_4_715"/>
</filter>
<filter id="filter16_f_4_715" x="592" y="235.31" width="41" height="38.7713" filterUnits="userSpaceOnUse" color-interpolation-filters="sRGB">
<feFlood flood-opacity="0" result="BackgroundImageFix"/>
<feBlend mode="normal" in="SourceGraphic" in2="BackgroundImageFix" result="shape"/>
<feGaussianBlur stdDeviation="2" result="effect1_foregroundBlur_4_715"/>
</filter>
<filter id="filter17_f_4_715" x="949" y="359.301" width="41" height="38.7713" filterUnits="userSpaceOnUse" color-interpolation-filters="sRGB">
<feFlood flood-opacity="0" result="BackgroundImageFix"/>
<feBlend mode="normal" in="SourceGraphic" in2="BackgroundImageFix" result="shape"/>
<feGaussianBlur stdDeviation="2" result="effect1_foregroundBlur_4_715"/>
</filter>
<filter id="filter18_f_4_715" x="863" y="161.097" width="41" height="38.7713" filterUnits="userSpaceOnUse" color-interpolation-filters="sRGB">
<feFlood flood-opacity="0" result="BackgroundImageFix"/>
<feBlend mode="normal" in="SourceGraphic" in2="BackgroundImageFix" result="shape"/>
<feGaussianBlur stdDeviation="2" result="effect1_foregroundBlur_4_715"/>
</filter>
<filter id="filter19_f_4_715" x="277" y="156.572" width="41" height="38.7713" filterUnits="userSpaceOnUse" color-interpolation-filters="sRGB">
<feFlood flood-opacity="0" result="BackgroundImageFix"/>
<feBlend mode="normal" in="SourceGraphic" in2="BackgroundImageFix" result="shape"/>
<feGaussianBlur stdDeviation="2" result="effect1_foregroundBlur_4_715"/>
</filter>
<filter id="filter20_f_4_715" x="315" y="117.655" width="41" height="38.7713" filterUnits="userSpaceOnUse" color-interpolation-filters="sRGB">
<feFlood flood-opacity="0" result="BackgroundImageFix"/>
<feBlend mode="normal" in="SourceGraphic" in2="BackgroundImageFix" result="shape"/>
<feGaussianBlur stdDeviation="2" result="effect1_foregroundBlur_4_715"/>
</filter>
<filter id="filter21_f_4_715" x="672" y="241.645" width="41" height="38.7713" filterUnits="userSpaceOnUse" color-interpolation-filters="sRGB">
<feFlood flood-opacity="0" result="BackgroundImageFix"/>
<feBlend mode="normal" in="SourceGraphic" in2="BackgroundImageFix" result="shape"/>
<feGaussianBlur stdDeviation="2" result="effect1_foregroundBlur_4_715"/>
</filter>
<filter id="filter22_f_4_715" x="586" y="43.4419" width="41" height="38.7713" filterUnits="userSpaceOnUse" color-interpolation-filters="sRGB">
<feFlood flood-opacity="0" result="BackgroundImageFix"/>
<feBlend mode="normal" in="SourceGraphic" in2="BackgroundImageFix" result="shape"/>
<feGaussianBlur stdDeviation="2" result="effect1_foregroundBlur_4_715"/>
</filter>
<filter id="filter23_f_4_715" x="0" y="38.9167" width="41" height="38.7713" filterUnits="userSpaceOnUse" color-interpolation-filters="sRGB">
<feFlood flood-opacity="0" result="BackgroundImageFix"/>
<feBlend mode="normal" in="SourceGraphic" in2="BackgroundImageFix" result="shape"/>
<feGaussianBlur stdDeviation="2" result="effect1_foregroundBlur_4_715"/>
</filter>
<filter id="filter24_f_4_715" x="744" y="193.678" width="41" height="38.7713" filterUnits="userSpaceOnUse" color-interpolation-filters="sRGB">
<feFlood flood-opacity="0" result="BackgroundImageFix"/>
<feBlend mode="normal" in="SourceGraphic" in2="BackgroundImageFix" result="shape"/>
<feGaussianBlur stdDeviation="2" result="effect1_foregroundBlur_4_715"/>
</filter>
<filter id="filter25_f_4_715" x="1101" y="317.669" width="41" height="38.7713" filterUnits="userSpaceOnUse" color-interpolation-filters="sRGB">
<feFlood flood-opacity="0" result="BackgroundImageFix"/>
<feBlend mode="normal" in="SourceGraphic" in2="BackgroundImageFix" result="shape"/>
<feGaussianBlur stdDeviation="2" result="effect1_foregroundBlur_4_715"/>
</filter>
<filter id="filter26_f_4_715" x="1015" y="119.465" width="41" height="38.7713" filterUnits="userSpaceOnUse" color-interpolation-filters="sRGB">
<feFlood flood-opacity="0" result="BackgroundImageFix"/>
<feBlend mode="normal" in="SourceGraphic" in2="BackgroundImageFix" result="shape"/>
<feGaussianBlur stdDeviation="2" result="effect1_foregroundBlur_4_715"/>
</filter>
<filter id="filter27_f_4_715" x="429" y="114.94" width="41" height="38.7713" filterUnits="userSpaceOnUse" color-interpolation-filters="sRGB">
<feFlood flood-opacity="0" result="BackgroundImageFix"/>
<feBlend mode="normal" in="SourceGraphic" in2="BackgroundImageFix" result="shape"/>
<feGaussianBlur stdDeviation="2" result="effect1_foregroundBlur_4_715"/>
</filter>
<filter id="filter28_f_4_715" x="833" y="281.467" width="41" height="38.7713" filterUnits="userSpaceOnUse" color-interpolation-filters="sRGB">
<feFlood flood-opacity="0" result="BackgroundImageFix"/>
<feBlend mode="normal" in="SourceGraphic" in2="BackgroundImageFix" result="shape"/>
<feGaussianBlur stdDeviation="2" result="effect1_foregroundBlur_4_715"/>
</filter>
<filter id="filter29_f_4_715" x="1190" y="405.458" width="41" height="38.7713" filterUnits="userSpaceOnUse" color-interpolation-filters="sRGB">
<feFlood flood-opacity="0" result="BackgroundImageFix"/>
<feBlend mode="normal" in="SourceGraphic" in2="BackgroundImageFix" result="shape"/>
<feGaussianBlur stdDeviation="2" result="effect1_foregroundBlur_4_715"/>
</filter>
<filter id="filter30_f_4_715" x="1104" y="207.254" width="41" height="38.7713" filterUnits="userSpaceOnUse" color-interpolation-filters="sRGB">
<feFlood flood-opacity="0" result="BackgroundImageFix"/>
<feBlend mode="normal" in="SourceGraphic" in2="BackgroundImageFix" result="shape"/>
<feGaussianBlur stdDeviation="2" result="effect1_foregroundBlur_4_715"/>
</filter>
<filter id="filter31_f_4_715" x="518" y="202.729" width="41" height="38.7713" filterUnits="userSpaceOnUse" color-interpolation-filters="sRGB">
<feFlood flood-opacity="0" result="BackgroundImageFix"/>
<feBlend mode="normal" in="SourceGraphic" in2="BackgroundImageFix" result="shape"/>
<feGaussianBlur stdDeviation="2" result="effect1_foregroundBlur_4_715"/>
</filter>
<clipPath id="clip0_4_715">
<rect width="33" height="30.7713" fill="white" transform="translate(517 137.041)"/>
</clipPath>
<clipPath id="clip1_4_715">
<rect width="33" height="30.7713" fill="white" transform="translate(874 261.031)"/>
</clipPath>
<clipPath id="clip2_4_715">
<rect width="33" height="30.7713" fill="white" transform="translate(788 62.8276)"/>
</clipPath>
<clipPath id="clip3_4_715">
<rect width="33" height="30.7713" fill="white" transform="translate(202 58.3024)"/>
</clipPath>
<clipPath id="clip4_4_715">
<rect width="33" height="30.7713" fill="white" transform="translate(439 208.539)"/>
</clipPath>
<clipPath id="clip5_4_715">
<rect width="33" height="30.7713" fill="white" transform="translate(796 332.529)"/>
</clipPath>
<clipPath id="clip6_4_715">
<rect width="33" height="30.7713" fill="white" transform="translate(710 134.326)"/>
</clipPath>
<clipPath id="clip7_4_715">
<rect width="33" height="30.7713" fill="white" transform="translate(124 129.8)"/>
</clipPath>
<clipPath id="clip8_4_715">
<rect width="33" height="30.7713" fill="white" transform="translate(622 137.041)"/>
</clipPath>
<clipPath id="clip9_4_715">
<rect width="33" height="30.7713" fill="white" transform="translate(979 261.031)"/>
</clipPath>
<clipPath id="clip10_4_715">
<rect width="33" height="30.7713" fill="white" transform="translate(893 62.8276)"/>
</clipPath>
<clipPath id="clip11_4_715">
<rect width="33" height="30.7713" fill="white" transform="translate(307 58.3024)"/>
</clipPath>
<clipPath id="clip12_4_715">
<rect width="33" height="30.7713" fill="white" transform="translate(825 82.7384)"/>
</clipPath>
<clipPath id="clip13_4_715">
<rect width="33" height="30.7713" fill="white" transform="translate(1182 206.729)"/>
</clipPath>
<clipPath id="clip14_4_715">
<rect width="33" height="30.7713" fill="white" transform="translate(1096 8.5252)"/>
</clipPath>
<clipPath id="clip15_4_715">
<rect width="33" height="30.7713" fill="white" transform="translate(510 4)"/>
</clipPath>
<clipPath id="clip16_4_715">
<rect width="33" height="30.7713" fill="white" transform="translate(596 239.31)"/>
</clipPath>
<clipPath id="clip17_4_715">
<rect width="33" height="30.7713" fill="white" transform="translate(953 363.301)"/>
</clipPath>
<clipPath id="clip18_4_715">
<rect width="33" height="30.7713" fill="white" transform="translate(867 165.097)"/>
</clipPath>
<clipPath id="clip19_4_715">
<rect width="33" height="30.7713" fill="white" transform="translate(281 160.572)"/>
</clipPath>
<clipPath id="clip20_4_715">
<rect width="33" height="30.7713" fill="white" transform="translate(319 121.655)"/>
</clipPath>
<clipPath id="clip21_4_715">
<rect width="33" height="30.7713" fill="white" transform="translate(676 245.645)"/>
</clipPath>
<clipPath id="clip22_4_715">
<rect width="33" height="30.7713" fill="white" transform="translate(590 47.4419)"/>
</clipPath>
<clipPath id="clip23_4_715">
<rect width="33" height="30.7713" fill="white" transform="translate(4 42.9167)"/>
</clipPath>
<clipPath id="clip24_4_715">
<rect width="33" height="30.7713" fill="white" transform="translate(748 197.678)"/>
</clipPath>
<clipPath id="clip25_4_715">
<rect width="33" height="30.7713" fill="white" transform="translate(1105 321.669)"/>
</clipPath>
<clipPath id="clip26_4_715">
<rect width="33" height="30.7713" fill="white" transform="translate(1019 123.465)"/>
</clipPath>
<clipPath id="clip27_4_715">
<rect width="33" height="30.7713" fill="white" transform="translate(433 118.94)"/>
</clipPath>
<clipPath id="clip28_4_715">
<rect width="33" height="30.7713" fill="white" transform="translate(837 285.467)"/>
</clipPath>
<clipPath id="clip29_4_715">
<rect width="33" height="30.7713" fill="white" transform="translate(1194 409.458)"/>
</clipPath>
<clipPath id="clip30_4_715">
<rect width="33" height="30.7713" fill="white" transform="translate(1108 211.254)"/>
</clipPath>
<clipPath id="clip31_4_715">
<rect width="33" height="30.7713" fill="white" transform="translate(522 206.729)"/>
</clipPath>
</defs>
</svg>
